<mxfile host="app.diagrams.net" agent="Mozilla/5.0 (Windows NT 10.0; Win64; x64) AppleWebKit/537.36 (KHTML, like Gecko) Chrome/141.0.0.0 Safari/537.36" version="28.2.8">
  <diagram name="Page-1" id="X0aFFIe-9FwppzIhBLRY">
    <mxGraphModel dx="1058" dy="638" grid="1" gridSize="10" guides="1" tooltips="1" connect="1" arrows="1" fold="1" page="1" pageScale="1" pageWidth="827" pageHeight="1169" math="0" shadow="0">
      <root>
        <mxCell id="0" />
        <mxCell id="1" parent="0" />
        <mxCell id="P6GSWnGUx6Ecd1PjJs6E-1" value="User" style="swimlane;fontStyle=1;align=center;verticalAlign=top;childLayout=stackLayout;horizontal=1;startSize=26;horizontalStack=0;resizeParent=1;resizeParentMax=0;resizeLast=0;collapsible=1;marginBottom=0;whiteSpace=wrap;html=1;" parent="1" vertex="1">
          <mxGeometry x="320" y="60" width="160" height="160" as="geometry" />
        </mxCell>
        <mxCell id="P6GSWnGUx6Ecd1PjJs6E-2" value="- userID: int&lt;div&gt;- username: String&lt;/div&gt;&lt;div&gt;- email: String&lt;/div&gt;&lt;div&gt;- password: String&lt;/div&gt;&lt;div&gt;&lt;br&gt;&lt;/div&gt;" style="text;strokeColor=none;fillColor=none;align=left;verticalAlign=top;spacingLeft=4;spacingRight=4;overflow=hidden;rotatable=0;points=[[0,0.5],[1,0.5]];portConstraint=eastwest;whiteSpace=wrap;html=1;" parent="P6GSWnGUx6Ecd1PjJs6E-1" vertex="1">
          <mxGeometry y="26" width="160" height="64" as="geometry" />
        </mxCell>
        <mxCell id="P6GSWnGUx6Ecd1PjJs6E-3" value="" style="line;strokeWidth=1;fillColor=none;align=left;verticalAlign=middle;spacingTop=-1;spacingLeft=3;spacingRight=3;rotatable=0;labelPosition=right;points=[];portConstraint=eastwest;strokeColor=inherit;" parent="P6GSWnGUx6Ecd1PjJs6E-1" vertex="1">
          <mxGeometry y="90" width="160" height="70" as="geometry" />
        </mxCell>
        <mxCell id="1y9OC6EbJWMRVsJWlo8K-44" value="Student" style="swimlane;fontStyle=1;align=center;verticalAlign=top;childLayout=stackLayout;horizontal=1;startSize=26;horizontalStack=0;resizeParent=1;resizeParentMax=0;resizeLast=0;collapsible=1;marginBottom=0;whiteSpace=wrap;html=1;" vertex="1" parent="1">
          <mxGeometry x="130" y="280" width="190" height="210" as="geometry" />
        </mxCell>
        <mxCell id="1y9OC6EbJWMRVsJWlo8K-45" value="- numCourses: list&amp;lt;Courses&amp;gt;&lt;div&gt;- certificates : List&amp;lt;Certificates&amp;gt;&amp;nbsp;&lt;/div&gt;&lt;div&gt;- analytics: Analytics&lt;/div&gt;" style="text;strokeColor=none;fillColor=none;align=left;verticalAlign=top;spacingLeft=4;spacingRight=4;overflow=hidden;rotatable=0;points=[[0,0.5],[1,0.5]];portConstraint=eastwest;whiteSpace=wrap;html=1;" vertex="1" parent="1y9OC6EbJWMRVsJWlo8K-44">
          <mxGeometry y="26" width="190" height="64" as="geometry" />
        </mxCell>
        <mxCell id="1y9OC6EbJWMRVsJWlo8K-46" value="" style="line;strokeWidth=1;fillColor=none;align=left;verticalAlign=middle;spacingTop=-1;spacingLeft=3;spacingRight=3;rotatable=0;labelPosition=right;points=[];portConstraint=eastwest;strokeColor=inherit;" vertex="1" parent="1y9OC6EbJWMRVsJWlo8K-44">
          <mxGeometry y="90" width="190" height="8" as="geometry" />
        </mxCell>
        <mxCell id="1y9OC6EbJWMRVsJWlo8K-47" value="&lt;div&gt;+ searchCourses(): void&lt;/div&gt;+ enrollCourse(course: Course): boolean&lt;div&gt;+ compLesson(lesson: Lesson): void&lt;/div&gt;&lt;div&gt;+ takeQuiz(quiz: Quiz): int&lt;/div&gt;&lt;div&gt;+ viewCertificate(): void&lt;/div&gt;" style="text;strokeColor=none;fillColor=none;align=left;verticalAlign=top;spacingLeft=4;spacingRight=4;overflow=hidden;rotatable=0;points=[[0,0.5],[1,0.5]];portConstraint=eastwest;whiteSpace=wrap;html=1;" vertex="1" parent="1y9OC6EbJWMRVsJWlo8K-44">
          <mxGeometry y="98" width="190" height="112" as="geometry" />
        </mxCell>
        <mxCell id="1y9OC6EbJWMRVsJWlo8K-48" value="" style="endArrow=block;endFill=0;endSize=12;html=1;rounded=0;entryX=0.5;entryY=1;entryDx=0;entryDy=0;exitX=0.833;exitY=0.006;exitDx=0;exitDy=0;exitPerimeter=0;" edge="1" parent="1" source="1y9OC6EbJWMRVsJWlo8K-44">
          <mxGeometry width="160" relative="1" as="geometry">
            <mxPoint x="390" y="290" as="sourcePoint" />
            <mxPoint x="390" y="220" as="targetPoint" />
          </mxGeometry>
        </mxCell>
      </root>
    </mxGraphModel>
  </diagram>
</mxfile>
